<svg width="20" height="20" viewBox="0 0 30 27" fill="none" xmlns="http://www.w3.org/2000/svg">
<path d="M15.8259 5.33157C15.8259 4.78575 15.3834 4.34327 14.8376 4.34327C14.2918 4.34327 13.8493 4.78575 13.8493 5.33157H15.8259ZM13.8493 24.1082C13.8493 24.654 14.2918 25.0965 14.8376 25.0965C15.3834 25.0965 15.8259 24.654 15.8259 24.1082H13.8493ZM4.28822 1.32288L4.39919 0.340828L4.28822 1.32288ZM13.9374 4.50282L14.5045 3.69344L14.5045 3.69344L13.9374 4.50282ZM4.28822 21.5647L4.39919 20.5827L4.39919 20.5827L4.28822 21.5647ZM13.9374 24.7447L14.5045 23.9353L14.5045 23.9353L13.9374 24.7447ZM25.387 1.32288L25.276 0.340828L25.276 0.340828L25.387 1.32288ZM15.7379 4.50282L15.1707 3.69344L15.1707 3.69344L15.7379 4.50282ZM25.387 21.5647L25.276 20.5827L25.276 20.5827L25.387 21.5647ZM15.7379 24.7447L15.1707 23.9353L15.1707 23.9353L15.7379 24.7447ZM5.76469 7.25561C5.22529 7.17207 4.72031 7.54162 4.63677 8.08102C4.55324 8.62041 4.92278 9.1254 5.46218 9.20893L5.76469 7.25561ZM10.5279 10.5156C11.037 10.7125 11.6093 10.4593 11.8062 9.95026C12.003 9.44117 11.7499 8.86889 11.2408 8.67202L10.5279 10.5156ZM5.76469 12.5266C5.22529 12.443 4.72031 12.8126 4.63677 13.352C4.55324 13.8914 4.92278 14.3964 5.46218 14.4799L5.76469 12.5266ZM8.00714 14.9935C8.53638 15.127 9.07366 14.8062 9.20719 14.277C9.34071 13.7477 9.01992 13.2105 8.49068 13.0769L8.00714 14.9935ZM13.8493 5.33157V24.1082H15.8259V5.33157H13.8493ZM4.17725 2.30494C7.04511 2.629 10.7747 3.49347 13.3702 5.31219L14.5045 3.69344C11.503 1.59024 7.37781 0.67741 4.39919 0.340828L4.17725 2.30494ZM4.17725 22.5468C7.04511 22.8709 10.7747 23.7353 13.3702 25.554L14.5045 23.9353C11.503 21.8321 7.37781 20.9193 4.39919 20.5827L4.17725 22.5468ZM0.671913 3.85809V18.7021H2.64852V3.85809H0.671913ZM4.39919 20.5827C3.41118 20.471 2.64852 19.6496 2.64852 18.7021H0.671913C0.671913 20.7357 2.27176 22.3315 4.17725 22.5468L4.39919 20.5827ZM4.39919 0.340828C2.27499 0.100795 0.671913 1.87372 0.671913 3.85809H2.64852C2.64852 2.86132 3.40795 2.21801 4.17725 2.30494L4.39919 0.340828ZM25.276 0.340828C22.2974 0.67741 18.1722 1.59024 15.1707 3.69344L16.305 5.31219C18.9005 3.49347 22.6301 2.629 25.498 2.30494L25.276 0.340828ZM25.276 20.5827C22.2974 20.9193 18.1722 21.8321 15.1707 23.9353L16.305 25.554C18.9005 23.7353 22.6301 22.8709 25.498 22.5468L25.276 20.5827ZM27.0267 3.85809V18.7021H29.0033V3.85809H27.0267ZM25.498 22.5468C27.4035 22.3315 29.0033 20.7357 29.0033 18.7021H27.0267C27.0267 19.6496 26.264 20.471 25.276 20.5827L25.498 22.5468ZM25.498 2.30494C26.2673 2.21801 27.0267 2.86133 27.0267 3.85809H29.0033C29.0033 1.87372 27.4002 0.100795 25.276 0.340828L25.498 2.30494ZM13.3702 25.554C14.2485 26.1695 15.4267 26.1695 16.305 25.554L15.1707 23.9353C14.9733 24.0736 14.7019 24.0736 14.5045 23.9353L13.3702 25.554ZM13.3702 5.31219C14.2485 5.92765 15.4267 5.92765 16.305 5.31219L15.1707 3.69344C14.9733 3.83175 14.7019 3.83175 14.5045 3.69344L13.3702 5.31219ZM5.46218 9.20893C7.08139 9.4597 8.86937 9.87422 10.5279 10.5156L11.2408 8.67202C9.41473 7.96586 7.48141 7.52148 5.76469 7.25561L5.46218 9.20893ZM5.46218 14.4799C6.27818 14.6063 7.13955 14.7746 8.00714 14.9935L8.49068 13.0769C7.55639 12.8412 6.63404 12.6612 5.76469 12.5266L5.46218 14.4799Z" fill="white"/>
</svg>
