<?xml version="1.0" standalone="no"?>
<!DOCTYPE svg PUBLIC "-//W3C//DTD SVG 20010904//EN"
 "http://www.w3.org/TR/2001/REC-SVG-20010904/DTD/svg10.dtd">
<svg version="1.0" xmlns="http://www.w3.org/2000/svg"
 width="512.000000pt" height="512.000000pt" viewBox="0 0 512.000000 512.000000"
 preserveAspectRatio="xMidYMid meet">

<g transform="translate(0.000000,512.000000) scale(0.100000,-0.100000)"
fill="#cb6d9a" stroke="none">
<path d="M3285 5105 c-254 -46 -454 -245 -531 -530 -11 -41 -14 -334 -14
-1665 0 -951 4 -1621 9 -1629 8 -13 36 -13 198 -3 296 18 608 72 751 129 202
81 381 265 460 471 42 108 55 181 55 302 0 118 -8 154 -88 425 -64 218 -147
543 -200 790 -79 365 -185 600 -354 786 -114 126 -289 242 -445 295 -98 33
-95 24 -42 133 61 127 159 197 297 210 90 10 134 31 160 81 40 74 14 160 -61
198 -50 25 -91 26 -195 7z"/>
</g>
</svg>
