<svg width="25" height="25" viewBox="0 0 25 25" fill="none" xmlns="http://www.w3.org/2000/svg">
<path d="M10.2708 18.75C10.128 18.7495 9.98676 18.7197 9.85595 18.6623C9.72513 18.605 9.60751 18.5214 9.51038 18.4166L4.44788 13.0312C4.25864 12.8295 4.15726 12.561 4.16605 12.2845C4.17485 12.0081 4.29308 11.7465 4.49476 11.5573C4.69643 11.368 4.96503 11.2666 5.24145 11.2754C5.51787 11.2842 5.77947 11.4025 5.96872 11.6041L10.2604 16.1771L19.0208 6.59372C19.1097 6.48301 19.2203 6.39165 19.3458 6.32524C19.4713 6.25883 19.609 6.21878 19.7506 6.20755C19.8921 6.19632 20.0345 6.21414 20.1689 6.25992C20.3033 6.3057 20.4269 6.37847 20.5321 6.47377C20.6374 6.56906 20.722 6.68487 20.7809 6.81407C20.8398 6.94328 20.8716 7.08316 20.8745 7.22511C20.8773 7.36707 20.8511 7.50811 20.7974 7.63956C20.7438 7.77102 20.6638 7.89012 20.5625 7.98955L11.0416 18.4062C10.9454 18.5128 10.8282 18.5984 10.6974 18.6576C10.5665 18.7167 10.4248 18.7482 10.2812 18.75H10.2708Z" fill="white"/>
</svg>
